# xmcd
#
# Track frame offsets: 
#        150
#        21975
#        49163
#        69863
#        91838
#        116396
#        138252
#        157452
#        176952
#        198139
#        220451
#        241513
#
# Disc length: 3515 seconds
#
# Revision: 0
# Processed by: cddbd v1.5.2PL0 Copyright (c) Steve Scherf et al.
# Submitted via: ExactAudioCopy v0.99pb5
#
DISCID=a40db90c
DTITLE=Truong Vu - Dem tam su
DYEAR=2012
DGENRE=Country
TTITLE0=Ai cho toi tinh yeu
TTITLE1=Buon chi em oi
TTITLE2=Buon trong ky niem
TTITLE3=Hay quen anh
TTITLE4=Chuyen chung minh
TTITLE5=Ngay buon
TTITLE6=Dem tam su
TTITLE7=Thanh pho buon
TTITLE8=Con duong mang ten em
TTITLE9=Em la tat ca
TTITLE10=Con duong mang ten em_Beat
TTITLE11=Em la tat ca_Beat
EXTD=
EXTT0=
EXTT1=
EXTT2=
EXTT3=
EXTT4=
EXTT5=
EXTT6=
EXTT7=
EXTT8=
EXTT9=
EXTT10=
EXTT11=
PLAYORDER=
